# This file uses centimeters as units for non-parametric coordinates.

mtllib mesa.mtl
v 4.182620 0.000000 -6.773425
v 4.462239 0.000000 -6.773425
v 4.182620 0.279619 -6.773425
v 4.462239 0.279619 -6.773425
v 4.182620 0.279619 -7.053044
v 4.462239 0.279619 -7.053044
v 4.182620 0.000000 -7.053044
v 4.462239 0.000000 -7.053044
v 5.718136 0.000000 -7.053044
v 5.718136 0.000000 -6.773425
v 5.718136 0.078560 -7.053044
v 5.718136 0.078560 -6.773425
v 2.926722 0.000000 -7.053044
v 2.926722 0.000000 -6.773425
v 2.926722 0.078560 -6.773425
v 2.926722 0.078560 -7.053044
v 4.182620 0.000000 -5.521613
v 4.462239 0.000000 -5.521613
v 4.462239 0.078560 -5.521612
v 4.182620 0.078560 -5.521612
v 4.182620 0.078560 -8.304857
v 4.462239 0.078560 -8.304857
v 4.462239 0.000000 -8.304856
v 4.182620 0.000000 -8.304856
v 4.182620 2.783711 -6.773425
v 4.462239 2.783711 -6.773425
v 4.462239 2.783711 -7.053044
v 4.182620 2.783711 -7.053044
v 4.182620 3.002559 -6.773425
v 4.462239 3.002559 -6.773425
v 4.462239 3.002559 -7.053044
v 4.182620 3.002559 -7.053044
v 5.835457 2.797638 -5.453105
v 5.782559 2.797638 -5.400207
v 5.798052 2.797638 -5.437612
v 5.835457 2.988632 -5.453105
v 5.798052 2.988632 -5.437612
v 5.782559 2.988632 -5.400207
v 2.809402 2.797638 -5.453105
v 2.846807 2.797638 -5.437612
v 2.862300 2.797638 -5.400207
v 2.809402 2.988632 -5.453105
v 2.862300 2.988632 -5.400207
v 2.846807 2.988632 -5.437612
v 5.782559 2.797638 -8.426262
v 5.835457 2.797638 -8.373364
v 5.798052 2.797638 -8.388858
v 5.782559 2.988632 -8.426262
v 5.798052 2.988632 -8.388858
v 5.835457 2.988632 -8.373364
v 2.809402 2.797638 -8.373364
v 2.862300 2.797638 -8.426262
v 2.846807 2.797638 -8.388858
v 2.809402 2.988632 -8.373364
v 2.846807 2.988632 -8.388858
v 2.862300 2.988632 -8.426262
v 2.758317 2.988632 -5.149168
v 2.758317 2.797638 -5.149168
v 5.886542 2.797638 -5.149168
v 5.886542 2.988632 -5.149168
v 6.086495 2.988632 -5.349121
v 6.086495 2.797638 -5.349121
v 6.086495 2.797638 -8.477348
v 6.086495 2.988632 -8.477348
v 5.886542 2.988632 -8.677301
v 5.886542 2.797638 -8.677301
v 2.758317 2.797638 -8.677301
v 2.758317 2.988632 -8.677301
v 2.558364 2.988632 -8.477348
v 2.558364 2.797638 -8.477348
v 2.558364 2.797638 -5.349121
v 2.558364 2.988632 -5.349121
vt 0.375000 0.000000
vt 0.625000 0.000000
vt 0.375000 0.250000
vt 0.625000 0.250000
vt 0.375000 0.500000
vt 0.625000 0.500000
vt 0.375000 0.750000
vt 0.625000 0.750000
vt 0.375000 1.000000
vt 0.625000 1.000000
vt 0.875000 0.000000
vt 0.875000 0.250000
vt 0.125000 0.000000
vt 0.125000 0.250000
vt 0.625000 0.000000
vt 0.875000 0.000000
vt 0.875000 0.250000
vt 0.625000 0.250000
vt 0.125000 0.000000
vt 0.375000 0.000000
vt 0.375000 0.250000
vt 0.125000 0.250000
vt 0.375000 0.000000
vt 0.625000 0.000000
vt 0.625000 0.250000
vt 0.375000 0.250000
vt 0.375000 0.500000
vt 0.625000 0.500000
vt 0.625000 0.750000
vt 0.375000 0.750000
vt 0.625000 0.250000
vt 0.375000 0.250000
vt 0.375000 0.250000
vt 0.625000 0.500000
vt 0.625000 0.254370
vt 0.625000 0.250000
vt 0.625000 0.250000
vt 0.375000 0.250000
vt 0.375000 0.495630
vt 0.375000 0.500000
vt 0.620630 0.500000
vt 0.375000 0.500000
vt 0.375000 0.500000
vt 0.375000 0.254370
vt 0.625000 0.500000
vt 0.625000 0.500000
vt 0.625000 0.254370
vt 0.620630 0.500000
vt 0.375000 0.495630
vt 0.375000 0.254370
vt 0.620630 0.250000
vt 0.625000 0.250000
vt 0.375000 0.250000
vt 0.379370 0.250000
vt 0.625000 0.495630
vt 0.625000 0.500000
vt 0.379370 0.500000
vt 0.375000 0.500000
vt 0.625000 0.250000
vt 0.621910 0.250000
vt 0.621910 0.250000
vt 0.620630 0.250000
vt 0.378090 0.250000
vt 0.379370 0.250000
vt 0.375000 0.250000
vt 0.378090 0.250000
vt 0.625000 0.500000
vt 0.625000 0.496910
vt 0.625000 0.496910
vt 0.625000 0.495630
vt 0.375000 0.500000
vt 0.378090 0.500000
vt 0.378090 0.500000
vt 0.379370 0.500000
vt 0.379370 0.250000
vt 0.620630 0.250000
vt 0.620630 0.250000
vt 0.379370 0.250000
vt 0.625000 0.254370
vt 0.625000 0.495630
vt 0.625000 0.495630
vt 0.625000 0.254370
vt 0.620630 0.500000
vt 0.379370 0.500000
vt 0.379370 0.500000
vt 0.620630 0.500000
vt 0.375000 0.495630
vt 0.375000 0.254370
vt 0.375000 0.254370
vt 0.375000 0.495630
vt 0.625000 0.250000
vt 0.625000 0.250000
vt 0.375000 0.250000
vt 0.375000 0.250000
vt 0.625000 0.500000
vt 0.625000 0.500000
vt 0.375000 0.500000
vt 0.375000 0.500000
vn -0.000000 -0.000012 1.000000
vn -0.000000 -0.000012 1.000000
vn -0.000000 -0.000012 1.000000
vn -0.000000 -0.000012 1.000000
vn -0.004904 0.999976 0.004904
vn 0.004904 0.999976 0.004904
vn 0.004904 0.999976 -0.004904
vn -0.004904 0.999976 -0.004904
vn -0.000000 -0.000012 -1.000000
vn -0.000000 -0.000012 -1.000000
vn -0.000000 -0.000012 -1.000000
vn -0.000000 -0.000012 -1.000000
vn -0.000000 -1.000000 0.000000
vn -0.000000 -1.000000 0.000000
vn -0.000000 -1.000000 -0.000000
vn -0.000000 -1.000000 0.000000
vn 1.000000 0.000000 0.000000
vn 1.000000 0.000000 0.000000
vn 1.000000 0.000000 0.000000
vn 1.000000 0.000000 0.000000
vn -1.000000 0.000000 0.000000
vn -1.000000 0.000000 0.000000
vn -1.000000 0.000000 0.000000
vn -1.000000 0.000000 0.000000
vn 0.000000 -1.000000 0.000000
vn 0.000000 -1.000000 0.000000
vn 0.000000 0.000000 -1.000000
vn 0.000000 0.000000 -1.000000
vn 0.000000 0.000000 -1.000000
vn 0.000000 0.000000 -1.000000
vn 0.158080 0.987426 0.000000
vn 0.158080 0.987426 0.000000
vn 0.158080 0.987426 0.000000
vn 0.158080 0.987426 0.000000
vn 0.000000 0.000000 1.000000
vn 0.000000 0.000000 1.000000
vn 0.000000 0.000000 1.000000
vn 0.000000 0.000000 1.000000
vn 0.000000 -1.000000 0.000000
vn 0.000000 -1.000000 0.000000
vn -0.000000 0.000000 1.000000
vn -0.000000 0.000000 1.000000
vn -0.000000 0.000000 1.000000
vn -0.000000 0.000000 1.000000
vn -0.158080 0.987426 0.000000
vn -0.158080 0.987426 0.000000
vn -0.158080 0.987426 0.000000
vn -0.158080 0.987426 0.000000
vn 0.000000 0.000000 -1.000000
vn 0.000000 0.000000 -1.000000
vn 0.000000 0.000000 -1.000000
vn 0.000000 0.000000 -1.000000
vn -0.000000 -1.000000 -0.000000
vn -0.000000 -1.000000 -0.000000
vn 1.000000 0.000000 0.000000
vn 1.000000 0.000000 0.000000
vn 1.000000 0.000000 0.000000
vn 1.000000 0.000000 0.000000
vn -0.000000 0.987346 0.158582
vn -0.000000 0.987346 0.158582
vn -0.000000 0.987346 0.158582
vn -0.000000 0.987346 0.158582
vn -1.000000 0.000000 0.000000
vn -1.000000 0.000000 0.000000
vn -1.000000 0.000000 0.000000
vn -1.000000 0.000000 0.000000
vn -0.000000 0.987346 -0.158582
vn -0.000000 0.987346 -0.158582
vn -0.000000 0.987346 -0.158582
vn -0.000000 0.987346 -0.158582
vn 1.000000 0.000000 0.000000
vn 1.000000 0.000000 0.000000
vn 1.000000 0.000000 0.000000
vn 1.000000 0.000000 0.000000
vn 0.000000 -1.000000 0.000000
vn 0.000000 -1.000000 0.000000
vn -1.000000 0.000000 0.000000
vn -1.000000 0.000000 0.000000
vn -1.000000 0.000000 0.000000
vn -1.000000 0.000000 0.000000
vn 0.000000 0.000000 1.000000
vn 0.000000 0.000000 1.000000
vn 0.000000 0.000000 1.000000
vn 0.000000 0.000000 1.000000
vn 1.000000 0.000000 0.000000
vn 1.000000 0.000000 0.000000
vn 1.000000 0.000000 0.000000
vn 1.000000 0.000000 0.000000
vn 0.000000 0.000000 -1.000000
vn 0.000000 0.000000 -1.000000
vn 0.000000 0.000000 -1.000000
vn 0.000000 0.000000 -1.000000
vn -1.000000 0.000000 0.000000
vn -1.000000 0.000000 0.000000
vn -1.000000 0.000000 0.000000
vn -1.000000 0.000000 0.000000
vn 0.000000 0.000000 1.000000
vn 0.000000 0.000000 1.000000
vn 0.000000 0.000000 1.000000
vn 0.000000 0.000000 1.000000
vn 1.000000 0.000000 0.000000
vn 1.000000 0.000000 0.000000
vn 1.000000 0.000000 0.000000
vn 1.000000 0.000000 0.000000
vn 0.000000 0.000000 -1.000000
vn 0.000000 0.000000 -1.000000
vn 0.000000 0.000000 -1.000000
vn 0.000000 0.000000 -1.000000
vn -1.000000 0.000000 0.000000
vn -1.000000 0.000000 0.000000
vn -1.000000 0.000000 0.000000
vn -1.000000 0.000000 0.000000
vn -0.004960 0.999975 0.004960
vn 0.000000 0.999973 0.007324
vn 0.000000 0.999973 0.007324
vn 0.004960 0.999975 0.004960
vn 0.007324 0.999973 0.000000
vn 0.007324 0.999973 -0.000000
vn 0.004960 0.999975 -0.004960
vn 0.000000 0.999973 -0.007324
vn 0.000000 0.999973 -0.007324
vn -0.004960 0.999975 -0.004960
vn -0.007324 0.999973 0.000000
vn -0.007324 0.999973 -0.000000
vn 0.707106 0.000000 0.707107
vn 0.707106 0.000000 0.707107
vn 0.707106 0.000000 0.707107
vn 0.707106 0.000000 0.707107
vn -0.707105 0.000000 0.707108
vn -0.707105 0.000000 0.707108
vn -0.707105 0.000000 0.707108
vn -0.707105 0.000000 0.707108
vn 0.707107 0.000000 -0.707106
vn 0.707107 0.000000 -0.707106
vn 0.707107 0.000000 -0.707106
vn 0.707107 0.000000 -0.707106
vn -0.707106 0.000000 -0.707108
vn -0.707106 0.000000 -0.707108
vn -0.707106 0.000000 -0.707108
vn -0.707106 0.000000 -0.707108
vn 0.000000 -1.000000 -0.000000
vn 0.000000 -1.000000 0.000001
vn 0.000000 -1.000000 0.000000
vn 0.000000 -1.000000 -0.000000
vn 0.000000 -1.000000 0.000000
vn 0.000000 -1.000000 0.000001
vn 0.000000 -1.000000 -0.000001
vn 0.000000 -1.000000 0.000000
vn 0.000000 -1.000000 0.000000
vn 0.000000 -1.000000 0.000000
vn 0.000000 -1.000000 -0.000001
vn 0.000000 -1.000000 0.000000
vn 0.000000 -1.000000 0.000001
vn 0.000000 -1.000000 0.000001
vn 0.000000 1.000000 -0.000000
vn 0.000000 1.000000 -0.000000
vn 0.000000 -1.000000 0.000000
vn 0.000000 -1.000000 -0.000000
vn 0.000000 1.000000 0.000000
vn 0.000000 1.000000 -0.000000
vn 0.000000 -1.000000 -0.000001
vn 0.000000 -1.000000 -0.000001
vn 0.000000 1.000000 0.000000
vn 0.000000 1.000000 0.000000
vn 0.000000 -1.000000 -0.000000
vn 0.000000 -1.000000 0.000000
vn 0.000000 1.000000 0.000000
vn 0.000000 1.000000 -0.000000
s off
usemtl lambert7SG
f 17/23/1 18/24/2 19/25/3 20/26/4
s 1
f 29/32/5 30/36/6 31/45/7 32/42/8
s off
f 21/27/9 22/28/10 23/29/11 24/30/12
s 2
f 7/7/13 8/8/14 2/10/15 1/9/16
s off
f 10/15/17 9/16/18 11/17/19 12/18/20
f 13/19/21 14/20/22 15/21/23 16/22/24
s 2
f 2/2/15 8/11/14 9/16/25 10/15/26
s off
f 8/11/27 6/12/28 11/17/29 9/16/30
f 6/12/31 4/4/32 12/18/33 11/17/34
f 4/4/35 2/2/36 10/15/37 12/18/38
s 2
f 7/13/13 1/1/16 14/20/39 13/19/40
s off
f 1/1/41 3/3/42 15/21/43 14/20/44
f 3/3/45 5/14/46 16/22/47 15/21/48
f 5/14/49 7/13/50 13/19/51 16/22/52
s 2
f 1/1/16 2/2/15 18/24/53 17/23/54
s off
f 2/2/55 4/4/56 19/25/57 18/24/58
f 4/4/59 3/3/60 20/26/61 19/25/62
f 3/3/63 1/1/64 17/23/65 20/26/66
f 5/5/67 6/6/68 22/28/69 21/27/70
f 6/6/71 8/8/72 23/29/73 22/28/74
s 2
f 8/8/14 7/7/13 24/30/75 23/29/76
s off
f 7/7/77 5/5/78 21/27/79 24/30/80
f 3/3/81 4/4/82 26/31/83 25/38/84
f 4/4/85 6/6/86 27/34/87 26/31/88
f 6/6/89 5/5/90 28/40/91 27/34/92
f 5/5/93 3/3/94 25/38/95 28/40/96
f 57/78/97 58/75/98 59/76/99 60/77/100
f 61/82/101 62/79/102 63/80/103 64/81/104
f 65/86/105 66/83/106 67/84/107 68/85/108
f 69/90/109 70/87/110 71/88/111 72/89/112
s 1
usemtl lambert8SG
f 30/36/6 29/32/5 44/33/113 43/54/114 38/62/115 37/37/116
f 31/45/7 30/36/6 37/37/116 36/47/117 50/70/118 49/46/119
f 32/42/8 31/45/7 49/46/119 48/48/120 56/74/121 55/43/122
f 29/32/5 32/42/8 55/43/122 54/49/123 42/44/124 44/33/113
s off
usemtl lambert7SG
f 59/76/125 62/91/126 61/92/127 60/77/128
f 71/93/129 58/75/130 57/78/131 72/94/132
f 63/80/133 66/95/134 65/96/135 64/81/136
f 67/84/137 70/97/138 69/98/139 68/85/140
s 3
f 33/59/141 34/51/142 35/60/143
s 1
f 36/52/117 37/61/116 38/62/115
s 3
f 39/53/144 40/63/145 41/64/146
s 1
f 42/65/124 43/54/114 44/66/113
s 3
f 45/67/147 46/55/148 47/68/149
s 1
f 48/56/120 49/69/119 50/70/118
s 3
f 51/71/150 52/57/151 53/72/152
s 1
f 54/58/123 55/73/122 56/74/121
s 3
f 41/64/146 34/51/142 59/76/153 58/75/154
s 1
f 38/62/115 43/54/114 57/78/155 60/77/156
s 3
f 33/35/141 46/55/148 63/80/157 62/79/158
s 1
f 50/70/118 36/47/117 61/82/159 64/81/160
s 3
f 45/41/147 52/57/151 67/84/161 66/83/162
s 1
f 56/74/121 48/48/120 65/86/163 68/85/164
s 3
f 51/39/150 39/50/144 71/88/165 70/87/166
s 1
f 42/44/124 54/49/123 69/90/167 72/89/168
s 3
f 34/51/142 33/59/141 62/91/158 59/76/153
s 1
f 36/52/117 38/62/115 60/77/156 61/92/159
s 3
f 39/53/144 41/64/146 58/75/154 71/93/165
s 1
f 43/54/114 42/65/124 72/94/168 57/78/155
s 3
f 46/55/148 45/67/147 66/95/162 63/80/157
s 1
f 48/56/120 50/70/118 64/81/160 65/96/163
s 3
f 52/57/151 51/71/150 70/97/166 67/84/161
s 1
f 54/58/123 56/74/121 68/85/164 69/98/167
