# This file uses centimeters as units for non-parametric coordinates.

mtllib sillon.mtl
v -2.407977 3.662821 -7.859309
v -2.407977 4.649806 -8.376923
v -2.407977 4.394783 -8.000259
v 2.383779 2.548744 -8.063831
v 2.383779 2.214368 -7.885529
v 2.383779 3.629104 -8.034393
v 2.205475 3.662819 -7.859307
v 2.205475 4.394784 -8.000258
v 2.383779 4.288544 -8.161378
v 2.383779 4.504555 -8.707224
v 2.383779 3.615801 -8.707224
v 2.205475 3.615801 -8.885529
v 2.383779 2.548744 -8.707224
v 2.205475 2.548744 -8.885529
v 2.205475 1.535010 -8.849980
v 2.205475 4.649807 -8.376921
v 2.383779 4.460754 -8.415728
v 2.214513 1.481688 -7.885529
v 2.383779 1.650953 -7.885529
v 2.383779 1.650953 -8.707224
v 2.264090 1.535010 -8.791365
v 2.383779 1.650953 -5.838000
v 2.214513 1.650953 -5.668736
v 2.214513 1.481688 -5.838000
v -2.407977 1.650955 -5.668737
v -2.407977 1.481690 -5.838003
v 2.214513 2.098849 -5.668736
v 2.383779 2.168961 -5.794946
v 2.135362 2.178000 -5.668736
v 2.205475 2.387378 -5.934143
v -2.407977 2.387380 -5.934145
v -2.407977 2.178002 -5.668737
v -2.407977 2.485040 -7.696870
v -2.407977 2.737406 -7.885530
v 2.205475 2.485038 -7.696869
v 2.338877 2.259270 -7.885529
v 2.338877 2.548744 -8.018930
v 2.205475 2.737405 -7.885529
v -2.407977 4.675297 -8.769167
v -2.407977 4.566249 -8.885530
v 2.272799 4.615535 -8.818203
v 2.205475 4.566249 -8.885529
v 2.205475 4.675297 -8.769163
vt -0.000000 0.312254
vt 0.962789 0.312254
vt 0.962789 0.567308
vt -0.000000 0.567308
vt 0.962789 0.743731
vt -0.000000 0.743730
vt -0.000000 0.753914
vt 0.962789 0.753915
vt 0.962789 0.699417
vt -0.000000 0.699416
vt 1.000000 0.017636
vt 1.000000 -0.111011
vt 1.000000 0.132447
vt 1.000000 0.233178
vt 1.000000 0.170420
vt 1.000000 0.530753
vt 1.000000 0.421806
vt 1.000000 0.662813
vt 1.000000 0.696573
vt 1.000000 0.689696
vt 0.976839 0.675533
vt 0.962789 0.393890
vt 0.962789 0.104531
vt 0.975022 -0.155625
vt 0.962789 -0.164802
vt 0.990629 0.240208
vt 0.990629 0.182596
vt 1.000000 0.485414
vt 1.000000 0.338202
vt 0.962789 0.273355
vt 0.962789 0.522850
vt -0.000000 0.273356
vt -0.000000 0.522850
vt -0.000000 0.364703
vt 0.964676 0.364703
vt 0.964676 0.486161
vt 0.948157 0.507625
vt -0.000000 0.507625
vt 0.964676 -0.028265
vt 0.964676 0.292302
vt -0.000000 0.292302
vt 0.962789 0.651627
vt -0.000000 0.651627
vn -0.000000 -0.028324 0.999599
vn -0.000000 -0.028324 0.999599
vn -0.000000 0.080866 0.996725
vn -0.000000 0.080866 0.996725
vn -0.000000 0.189091 0.981960
vn -0.000000 0.189091 0.981960
vn -0.000000 0.997895 0.064849
vn -0.000000 0.997895 0.064849
vn -0.000000 0.997895 0.064849
vn -0.000000 0.997895 0.064849
vn 1.000000 0.000000 0.000000
vn 1.000000 0.000000 0.000000
vn 1.000000 0.000000 0.000000
vn 1.000000 0.000000 0.000000
vn 1.000000 0.000000 0.000000
vn 1.000000 0.000000 0.000000
vn 1.000000 0.000000 0.000000
vn -0.000000 0.828058 0.560643
vn -0.000000 0.828058 0.560643
vn -0.000000 0.828058 0.560643
vn -0.000000 0.828058 0.560643
vn 1.000000 0.000000 0.000000
vn 1.000000 0.000000 0.000000
vn 1.000000 0.000000 0.000000
vn 0.704521 0.057320 0.707365
vn 0.704521 0.057320 0.707365
vn 0.707104 0.133708 0.694354
vn 0.707104 0.133708 0.694354
vn 0.707105 0.585527 0.396435
vn 0.707105 0.585527 0.396435
vn 0.707105 0.585527 0.396435
vn 0.707105 0.585527 0.396435
vn 0.703965 0.706858 0.069173
vn 0.703965 0.706858 0.069173
vn 0.703965 0.706858 0.069173
vn 0.703965 0.706858 0.069173
vn 0.703965 0.706858 0.069173
vn 0.707108 0.000000 -0.707106
vn 0.707108 0.000000 -0.707106
vn 0.689882 -0.008969 -0.723867
vn 0.689882 -0.008969 -0.723867
vn 0.672202 -0.017932 -0.740151
vn 0.672202 -0.017932 -0.740151
vn 0.672202 -0.017932 -0.740151
vn 0.557047 0.371193 0.742909
vn 0.738747 0.317219 0.594663
vn 0.738747 0.317219 0.594663
vn 0.557047 0.371193 0.742909
vn 1.000000 0.000000 0.000000
vn 1.000000 0.000000 0.000000
vn 0.808004 0.588899 0.018087
vn 0.808004 0.588899 0.018087
vn 0.808004 0.588899 0.018087
vn 0.808004 0.588899 0.018087
vn 0.808004 0.588899 0.018087
vn 0.000000 0.998469 0.055318
vn 0.000000 0.998469 0.055318
vn 0.000000 0.998469 0.055318
vn 0.000000 0.998469 0.055318
vn -0.000000 -0.000000 1.000000
vn -0.000000 -0.000000 1.000000
vn -0.000000 -0.000000 1.000000
vn -0.000000 -0.000000 1.000000
vn -0.000000 -0.000000 1.000000
vn 0.704928 -0.709278 -0.000896
vn 0.704928 -0.709278 -0.000896
vn 0.707106 -0.707107 0.000000
vn 0.707106 -0.707107 0.000000
vn 0.702743 -0.711442 -0.001792
vn 0.702743 -0.711442 -0.001792
vn 0.661124 -0.033409 0.749533
vn 0.661124 -0.033409 0.749533
vn 0.661124 -0.033409 0.749533
vn 0.661124 -0.033409 0.749533
vn -0.000001 -0.707106 0.707107
vn -0.000001 -0.707106 0.707107
vn -0.000001 -0.707106 0.707107
vn -0.000001 -0.707106 0.707107
vn 0.367897 0.635739 0.678593
vn 0.367897 0.635739 0.678593
vn 0.367897 0.635739 0.678593
vn 0.367897 0.635739 0.678593
vn 0.000000 0.785104 0.619364
vn 0.000000 0.785104 0.619364
vn 0.000000 0.785104 0.619364
vn 0.000000 0.785104 0.619364
vn 0.577349 -0.577351 0.577351
vn 0.577349 -0.577351 0.577351
vn 0.577349 -0.577351 0.577351
vn 0.697703 -0.019413 0.716124
vn 0.697703 -0.019413 0.716124
vn 0.697703 -0.019413 0.716124
vn 0.000000 0.598750 0.800936
vn 0.000000 0.598750 0.800936
vn 0.000000 0.598750 0.800936
vn 0.000000 0.598750 0.800936
vn 0.877670 0.244878 0.411983
vn 0.877670 0.244878 0.411983
vn 0.707108 0.000000 -0.707106
vn 0.707108 0.000000 -0.707106
vn 0.707108 0.000000 -0.707106
vn 0.000000 0.729674 -0.683795
vn 0.000000 0.729674 -0.683795
vn 0.074197 0.727665 -0.681908
vn 0.074197 0.727665 -0.681908
vn 0.147984 0.721644 -0.676262
s 1
usemtl lambert5SG
f 34/1/1 38/2/2 7/3/3 1/4/4
f 1/4/4 7/3/3 8/5/5 3/6/6
s off
f 2/7/7 16/8/8 43/9/9 39/10/10
s 2
usemtl lambert6SG
f 19/11/11 20/12/12 13/13/13 4/14/14 5/15/15
f 6/16/16 4/14/14 13/13/13 11/17/17
s off
usemtl lambert5SG
f 2/7/18 3/6/19 8/5/20 16/8/21
s 2
usemtl lambert6SG
f 11/17/17 10/18/22 17/19/23 9/20/24 6/16/16
s 3
usemtl lambert5SG
f 7/3/25 6/16/26 9/20/27 8/5/28
s off
f 8/5/29 9/20/30 17/19/31 16/8/32
f 10/18/33 41/21/34 43/9/35 16/8/36 17/19/37
s 4
f 12/22/38 11/17/39 13/13/40 14/23/41
f 14/23/41 13/13/40 20/12/42 21/24/43 15/25/44
s 5
f 4/14/45 37/26/46 36/27/47 5/15/48
s 2
usemtl lambert6SG
f 28/28/49 22/29/50 19/11/11 5/15/15
s off
usemtl lambert5SG
f 5/15/51 36/27/52 35/30/53 30/31/54 28/28/55
f 35/30/56 33/32/57 31/33/58 30/31/59
f 25/34/60 23/35/61 27/36/62 29/37/63 32/38/64
s 6
f 18/39/65 19/11/66 22/29/67 24/40/68
f 19/11/66 18/39/65 21/24/69 20/12/70
s off
f 23/35/71 22/29/72 28/28/73 27/36/74
f 24/40/75 23/35/76 25/34/77 26/41/78
f 27/36/79 28/28/80 30/31/81 29/37/82
f 29/37/83 30/31/84 31/33/85 32/38/86
f 22/29/87 23/35/88 24/40/89
s 3
f 38/2/90 37/26/91 4/14/92 6/16/26 7/3/25
s off
f 34/1/93 33/32/94 35/30/95 38/2/96
s 5
f 35/30/97 36/27/47 37/26/46 38/2/98
s 4
f 42/42/99 41/21/100 10/18/101 11/17/39 12/22/38
s 7
f 40/43/102 39/10/103 43/9/104 42/42/105
f 41/21/106 42/42/105 43/9/104
